# xmcd
#
# Track frame offsets: 
#        150
#        15989
#        29567
#        40619
#        56490
#        67207
#        78787
#        93008
#        102866
#        116591
#        126560
#        142765
#        154543
#        170293
#
# Disc length: 2424 seconds
#
# Revision: 2
# Processed by: cddbd v1.5.2PL0 Copyright (c) Steve Scherf et al.
# Submitted via: ExactAudioCopy v1.1
#
DISCID=a609760e
DTITLE=Holly Golightly and The Brokeoffs - You can't Buy a Gun When Your
DTITLE='re Crying
DYEAR=2007
DGENRE=Rock
TTITLE0=Devil Do
TTITLE1=Just Around The Bend
TTITLE2=Everything You Touch
TTITLE3=Medicine Water
TTITLE4=You Can't Buy A Gun
TTITLE5=Crow Jane
TTITLE6=So Long
TTITLE7=Time To Go
TTITLE8=Black Heart
TTITLE9=Cleant In Two
TTITLE10=Jesus Don't Love Me
TTITLE11=I Let My Daddy Do That
TTITLE12=Whoopie Ti Yi Yo
TTITLE13=Devil Don't
EXTD=
EXTT0=written by H. Golightly and D. Drake
EXTT1=written by H. Golightly and D. Drake
EXTT2=written by H. Golightly and D. Drake
EXTT3=written by H. Golightly and D. Drake
EXTT4=written by H. Golightly and D. Drake
EXTT5=Trad. arr. by H. Golightly and D. Drake
EXTT6=written by H. Golightly and D. Drake
EXTT7=written by H. Golightly and D. Drake
EXTT8=written by H. Golightly and D. Drake
EXTT9=written by H. Golightly and D. Drake
EXTT10=written by H. Golightly and D. Drake
EXTT11=written by W. Calaway and C. Williams
EXTT12=Trad. arr. by H. Golightly and D. Drake
EXTT13=written by H. Golightly and D. Drake
PLAYORDER=
